<svg width="100" height="100" viewBox="0 0 100 100" fill="none" xmlns="http://www.w3.org/2000/svg">
<path d="M32.5 8.3335H67.5C80.8333 8.3335 91.6667 19.1668 91.6667 32.5002V67.5002C91.6667 73.9096 89.1206 80.0564 84.5884 84.5886C80.0563 89.1207 73.9094 91.6668 67.5 91.6668H32.5C19.1667 91.6668 8.33334 80.8335 8.33334 67.5002V32.5002C8.33334 26.0908 10.8795 19.9439 15.4116 15.4117C19.9437 10.8796 26.0906 8.3335 32.5 8.3335M31.6667 16.6668C27.6884 16.6668 23.8731 18.2472 21.0601 21.0602C18.247 23.8733 16.6667 27.6886 16.6667 31.6668V68.3335C16.6667 76.6252 23.375 83.3335 31.6667 83.3335H68.3333C72.3116 83.3335 76.1269 81.7531 78.9399 78.9401C81.753 76.1271 83.3333 72.3117 83.3333 68.3335V31.6668C83.3333 23.3752 76.625 16.6668 68.3333 16.6668H31.6667ZM71.875 22.9168C73.2563 22.9168 74.5811 23.4656 75.5579 24.4423C76.5346 25.4191 77.0833 26.7438 77.0833 28.1252C77.0833 29.5065 76.5346 30.8313 75.5579 31.808C74.5811 32.7848 73.2563 33.3335 71.875 33.3335C70.4937 33.3335 69.1689 32.7848 68.1922 31.808C67.2154 30.8313 66.6667 29.5065 66.6667 28.1252C66.6667 26.7438 67.2154 25.4191 68.1922 24.4423C69.1689 23.4656 70.4937 22.9168 71.875 22.9168ZM50 29.1668C55.5254 29.1668 60.8244 31.3618 64.7314 35.2688C68.6384 39.1758 70.8333 44.4748 70.8333 50.0002C70.8333 55.5255 68.6384 60.8245 64.7314 64.7316C60.8244 68.6386 55.5254 70.8335 50 70.8335C44.4747 70.8335 39.1756 68.6386 35.2686 64.7316C31.3616 60.8245 29.1667 55.5255 29.1667 50.0002C29.1667 44.4748 31.3616 39.1758 35.2686 35.2688C39.1756 31.3618 44.4747 29.1668 50 29.1668M50 37.5002C46.6848 37.5002 43.5054 38.8171 41.1612 41.1613C38.817 43.5055 37.5 46.685 37.5 50.0002C37.5 53.3154 38.817 56.4948 41.1612 58.839C43.5054 61.1832 46.6848 62.5002 50 62.5002C53.3152 62.5002 56.4946 61.1832 58.8388 58.839C61.183 56.4948 62.5 53.3154 62.5 50.0002C62.5 46.685 61.183 43.5055 58.8388 41.1613C56.4946 38.8171 53.3152 37.5002 50 37.5002Z" fill="black"/>
</svg>
