<svg width="100" height="100" viewBox="0 0 100 100" fill="none" xmlns="http://www.w3.org/2000/svg">
<path d="M37.6667 89.7502C41.6667 90.9585 45.7084 91.6668 50 91.6668C61.0507 91.6668 71.6488 87.277 79.4628 79.4629C87.2768 71.6489 91.6667 61.0508 91.6667 50.0002C91.6667 44.5284 90.589 39.1102 88.495 34.055C86.4011 28.9998 83.3319 24.4065 79.4628 20.5374C75.5937 16.6683 71.0004 13.5991 65.9452 11.5052C60.89 9.41124 55.4718 8.3335 50 8.3335C44.5283 8.3335 39.1101 9.41124 34.0549 11.5052C28.9997 13.5991 24.4064 16.6683 20.5373 20.5374C12.7232 28.3514 8.33337 38.9495 8.33337 50.0002C8.33337 67.7085 19.4584 82.9168 35.1667 88.9168C34.7917 85.6668 34.4167 80.2918 35.1667 76.5835L39.9584 56.0002C39.9584 56.0002 38.75 53.5835 38.75 49.7502C38.75 44.0002 42.3334 39.7085 46.4167 39.7085C50 39.7085 51.6667 42.3335 51.6667 45.7085C51.6667 49.2918 49.2917 54.4168 48.0834 59.3335C47.375 63.4168 50.25 67.0002 54.4167 67.0002C61.8334 67.0002 67.5834 59.0835 67.5834 47.9168C67.5834 37.9168 60.4167 31.0835 50.125 31.0835C38.375 31.0835 31.4584 39.8335 31.4584 49.0418C31.4584 52.6252 32.625 56.2502 34.5417 58.6252C34.9167 58.8752 34.9167 59.2085 34.7917 59.8335L33.5834 64.3752C33.5834 65.0835 33.125 65.3335 32.4167 64.8335C27.0834 62.5002 24 54.9168 24 48.7918C24 35.6252 33.3334 23.6668 51.3334 23.6668C65.6667 23.6668 76.8334 33.9585 76.8334 47.6252C76.8334 61.9585 67.9584 73.4585 55.25 73.4585C51.2084 73.4585 47.25 71.2918 45.8334 68.7502L43.0417 78.6252C42.0834 82.2085 39.4584 87.0002 37.6667 89.8752V89.7502Z" fill="black"/>
</svg>

