<svg width="100" height="100" viewBox="0 0 100 100" fill="none" xmlns="http://www.w3.org/2000/svg">
<path d="M41.6666 62.5002L63.2916 50.0002L41.6666 37.5002V62.5002ZM89.8333 29.8752C90.375 31.8335 90.75 34.4585 91 37.7918C91.2916 41.1252 91.4166 44.0002 91.4166 46.5002L91.6666 50.0002C91.6666 59.1252 91 65.8335 89.8333 70.1252C88.7916 73.8752 86.375 76.2918 82.625 77.3335C80.6666 77.8752 77.0833 78.2502 71.5833 78.5002C66.1666 78.7918 61.2083 78.9168 56.625 78.9168L50 79.1668C32.5416 79.1668 21.6666 78.5002 17.375 77.3335C13.625 76.2918 11.2083 73.8752 10.1666 70.1252C9.62498 68.1668 9.24998 65.5418 8.99998 62.2085C8.70831 58.8752 8.58331 56.0002 8.58331 53.5002L8.33331 50.0002C8.33331 40.8752 8.99998 34.1668 10.1666 29.8752C11.2083 26.1252 13.625 23.7085 17.375 22.6668C19.3333 22.1252 22.9166 21.7502 28.4166 21.5002C33.8333 21.2085 38.7916 21.0835 43.375 21.0835L50 20.8335C67.4583 20.8335 78.3333 21.5002 82.625 22.6668C86.375 23.7085 88.7916 26.1252 89.8333 29.8752Z" fill="black"/>
</svg>

